<svg width="56" height="38" viewBox="0 0 56 38" fill="none" xmlns="http://www.w3.org/2000/svg">
<path d="M3 16.5C1.61929 16.5 0.5 17.6193 0.5 19C0.5 20.3807 1.61929 21.5 3 21.5V16.5ZM54.7678 20.7678C55.7441 19.7915 55.7441 18.2085 54.7678 17.2322L38.8579 1.32233C37.8816 0.34602 36.2986 0.34602 35.3223 1.32233C34.346 2.29864 34.346 3.88155 35.3223 4.85786L49.4645 19L35.3223 33.1421C34.346 34.1184 34.346 35.7014 35.3223 36.6777C36.2986 37.654 37.8816 37.654 38.8579 36.6777L54.7678 20.7678ZM3 21.5H53V16.5H3V21.5Z" fill="white"/>
</svg>
